<svg width="128" height="128" viewBox="0 0 128 128" fill="none" xmlns="http://www.w3.org/2000/svg">
  <defs>
    <linearGradient id="statlyPurpleFill" x1="18" y1="12" x2="111" y2="118" gradientUnits="userSpaceOnUse">
      <stop stop-color="#090F1E"/>
      <stop offset="1" stop-color="#141B35"/>
    </linearGradient>
    <linearGradient id="statlyPurpleStroke" x1="24" y1="16" x2="103" y2="114" gradientUnits="userSpaceOnUse">
      <stop stop-color="#70B8FF"/>
      <stop offset="0.45" stop-color="#5B7CFF"/>
      <stop offset="1" stop-color="#A14CFF"/>
    </linearGradient>
    <linearGradient id="statlyPurpleMark" x1="35" y1="31" x2="91" y2="96" gradientUnits="userSpaceOnUse">
      <stop stop-color="#F7F9FF"/>
      <stop offset="0.52" stop-color="#81B8FF"/>
      <stop offset="1" stop-color="#A14CFF"/>
    </linearGradient>
    <linearGradient id="statlyPurpleBars" x1="75" y1="38" x2="101" y2="88" gradientUnits="userSpaceOnUse">
      <stop stop-color="#8DD2FF"/>
      <stop offset="1" stop-color="#C07BFF"/>
    </linearGradient>
  </defs>

  <path
    d="M64 8L103.5 20.8V56.8C103.5 77.4 87.2 97.8 64 110C40.8 97.8 24.5 77.4 24.5 56.8V20.8L64 8Z"
    fill="url(#statlyPurpleFill)"
  />
  <path
    d="M64 12.5L99.5 24V56.2C99.5 74.6 84.9 92.7 64 104.1C43.1 92.7 28.5 74.6 28.5 56.2V24L64 12.5Z"
    stroke="url(#statlyPurpleStroke)"
    stroke-width="4.5"
    stroke-linejoin="round"
  />

  <path
    d="M39 39C43.5 33.7 51.2 30.5 59.6 30.5C69.4 30.5 76.6 34.7 76.6 41.4C76.6 47 72.4 50.1 63.8 52.8L56.9 55C47.4 58 42.7 62.8 42.7 70.8C42.7 80.1 50.6 87.3 62.6 87.3C71.3 87.3 78.4 84.4 83.7 78.7"
    stroke="url(#statlyPurpleMark)"
    stroke-width="8"
    stroke-linecap="round"
    stroke-linejoin="round"
  />

  <path
    d="M78.5 43.5H87.5V79.5H78.5V43.5Z"
    fill="url(#statlyPurpleBars)"
    opacity="0.96"
  />
  <path
    d="M91.5 34.5H100.5V79.5H91.5V34.5Z"
    fill="url(#statlyPurpleBars)"
    opacity="0.82"
  />

  <path
    d="M76.5 91.5C80.1 89.9 83.3 87.5 86 84.4"
    stroke="#B98BFF"
    stroke-width="4.5"
    stroke-linecap="round"
    opacity="0.9"
  />
</svg>
